<?xml version="1.0" encoding="UTF-8"?><!DOCTYPE svg PUBLIC "-//W3C//DTD SVG 1.1//EN" "http://www.w3.org/Graphics/SVG/1.1/DTD/svg11.dtd"><svg xmlns="http://www.w3.org/2000/svg"><symbol id="arrowdown" viewBox="75 75 50 50"><path d="M101.206 113.838l21.7-21.699a1.615 1.615 0 0 0-2.285-2.283l-20.641 20.64-20.301-20.3a1.564 1.564 0 0 0-2.217 0 1.563 1.563 0 0 0 0 2.219l21.081 21.082c.083.083.183.123.278.183.037.05.057.111.104.158.628.63 1.651.63 2.281 0z"/></symbol><symbol id="close" viewBox="0 0 200 200"><path d="M188.816 11.357c4.741 4.742 4.741 12.427 0 17.168L28.526 188.824c-4.742 4.74-12.434 4.74-17.175 0-4.742-4.75-4.742-12.435 0-17.176L171.64 11.357c4.742-4.749 12.435-4.749 17.176 0z"/><path d="M28.526 11.357l160.29 160.283c4.741 4.75 4.741 12.435 0 17.177-4.742 4.741-12.435 4.741-17.177 0L11.351 28.526c-4.742-4.75-4.742-12.434 0-17.168 4.741-4.75 12.433-4.75 17.175-.001z"/></symbol><symbol id="setup" viewBox="0 0 200 200"><path d="M190.249 120.13l-3.974-2.074c-6.208-3.62-10.397-10.356-10.397-18.085 0-7.714 4.177-14.451 10.385-18.085l3.986-2.087c4.148-2.168 6.385-7.022 5.626-11.536a104.88 104.88 0 0 0-2.589-6.968 108.33 108.33 0 0 0-3.092-6.766c-2.657-3.729-7.673-5.585-12.147-4.176l-4.283 1.343c-6.969 1.83-14.683.026-20.145-5.437-5.464-5.462-7.268-13.176-5.438-20.131l1.343-4.284c1.41-4.461-.447-9.476-4.175-12.146a98.865 98.865 0 0 0-6.766-3.092 98.286 98.286 0 0 0-6.969-2.589c-4.514-.759-9.382 1.478-11.537 5.625l-2.074 3.973c-3.633 6.222-10.371 10.398-18.085 10.398s-14.452-4.176-18.085-10.398L79.76 9.641c-2.169-4.147-7.022-6.384-11.537-5.625a98.753 98.753 0 0 0-6.982 2.576 109.18 109.18 0 0 0-6.766 3.092c-3.728 2.67-5.585 7.686-4.175 12.16l1.343 4.284c1.83 6.969.013 14.682-5.437 20.131-5.449 5.463-13.163 7.267-20.131 5.45l-4.298-1.356c-4.461-1.41-9.477.448-12.133 4.176a94.92 94.92 0 0 0-3.091 6.766 98.389 98.389 0 0 0-2.589 6.968c-.759 4.529 1.477 9.382 5.625 11.55l3.973 2.073c6.222 3.634 10.397 10.371 10.397 18.085s-4.175 14.439-10.384 18.072l-3.987 2.087c-4.148 2.169-6.384 7.022-5.625 11.538a106.651 106.651 0 0 0 2.589 6.968 109.69 109.69 0 0 0 3.092 6.765c2.657 3.728 7.672 5.586 12.146 4.176l4.269-1.343c6.97-1.829 14.697-.025 20.146 5.438 5.45 5.449 7.267 13.163 5.45 20.117L50.3 178.1c-1.397 4.462.447 9.477 4.175 12.147a98.143 98.143 0 0 0 6.765 3.092 98.756 98.756 0 0 0 6.968 2.589c4.514.76 9.381-1.478 11.537-5.627l2.074-3.972c3.633-6.209 10.371-10.398 18.098-10.398 7.714 0 14.439 4.177 18.071 10.372l2.088 3.998c2.169 4.149 7.023 6.386 11.538 5.627a105.864 105.864 0 0 0 6.968-2.589 109.719 109.719 0 0 0 6.766-3.092c3.728-2.657 5.585-7.673 4.176-12.147l-1.344-4.27c-1.83-6.968-.026-14.695 5.438-20.158 5.449-5.45 13.163-7.267 20.117-5.438l4.298 1.356c4.46 1.396 9.478-.448 12.146-4.176a98.168 98.168 0 0 0 3.092-6.766 97.594 97.594 0 0 0 2.589-6.968c.774-4.528-1.463-9.381-5.611-11.55zM99.918 150.9c-28.133 0-50.929-22.81-50.929-50.93 0-28.118 22.796-50.929 50.929-50.929 28.135 0 50.93 22.811 50.93 50.929.001 28.121-22.794 50.93-50.93 50.93z"/></symbol><symbol id="signout" viewBox="0 0 200 200"><path d="M100.308 195.418c-11.808 0-23.275-2.325-34.062-6.932-10.426-4.428-19.776-10.773-27.811-18.861a87.955 87.955 0 0 1-18.754-28c-4.562-10.856-6.877-22.392-6.877-34.284 0-14.229 3.467-28.354 10.016-40.869a88.92 88.92 0 0 1 26.612-30.701c3.078-2.22 7.355-1.501 9.555 1.591 2.199 3.091 1.497 7.388-1.581 9.595-9.363 6.772-17.133 15.723-22.472 25.929-5.603 10.699-8.442 22.289-8.442 34.455 0 19.851 7.681 38.514 21.628 52.544 13.938 14.036 32.474 21.77 52.188 21.77 19.705 0 38.248-7.733 52.194-21.77 13.945-14.03 21.619-32.693 21.619-52.544 0-12.152-2.833-23.763-8.444-34.455-5.338-10.199-13.114-19.157-22.478-25.915-3.07-2.208-3.785-6.506-1.581-9.596 2.208-3.091 6.477-3.817 9.549-1.59 11.086 7.992 20.298 18.609 26.624 30.7 6.558 12.515 10.023 26.642 10.023 40.87 0 11.894-2.314 23.427-6.885 34.293a87.768 87.768 0 0 1-18.753 27.998c-8.033 8.087-17.383 14.427-27.81 18.876-10.791 4.578-22.252 6.896-34.058 6.896zm2.055-95.575c-3.779 0-6.843-3.071-6.843-6.883V11.384c0-3.797 3.063-6.888 6.843-6.888s6.852 3.091 6.852 6.888V92.96c0 3.811-3.071 6.883-6.852 6.883z"/></symbol><symbol id="userinfo" viewBox="0 0 200 200"><path d="M159.111 194.711H12.523a3.812 3.812 0 0 1-3.812-3.812v-4.58c-.065-1.278-.186-8.278 4.283-15.966 2.796-4.81 6.815-8.942 11.946-12.279 6.217-4.042 14.091-6.912 23.404-8.532l.143-.021c.072-.01 7.237-.991 14.518-2.91 12.619-3.327 13.723-6.268 13.731-6.297.074-.292.182-.572.32-.835.103-.551.36-2.622-.13-8.171-1.245-14.096-8.587-22.426-14.488-29.12-1.861-2.111-3.619-4.104-4.971-6.06-5.84-8.435-6.381-18.026-6.402-18.43a4.014 4.014 0 0 1-.004-.19c0-3.829 1.909-5.59 3.593-7.144l.088-.082c.056-.052.09-.089.11-.113.019-.274-.116-.967-.207-1.437-.034-.178-.069-.356-.102-.537-1.464-7.947-1.564-20.223-.239-28.102.491-10.36 9.424-18.291 9.807-18.626a1.44 1.44 0 0 1 .044-.037c1.283-1.089 2.583-2.278 3.41-3.596.1-.158.169-.281.218-.375-.062-.16-.151-.366-.223-.532-.498-1.145-1.248-2.875-.822-5.101.259-1.344 1.239-3.744 4.917-4.725 1.481-.395 3.063-.475 4.218-.535l.229-.012c4.565-.241 9.434-.444 14.36-.066 35.624 2.731 47.895 16.043 48.399 16.608.03.032.059.064.085.097 2.852 3.416 4.964 7.673 6.277 12.651.411 1.553.676 2.857.829 4.092 1.243 7.23 1.037 14.659.771 19.626-.148 2.788-.46 5.715-.979 9.211-.141.95.015 1.135.072 1.204.155.185.344.386.544.599.789.836 1.866 1.98 2.44 3.817.287.917.422 1.908.422 3.113 0 .063-.002.127-.006.19-.021.404-.562 9.996-6.4 18.43-1.354 1.956-3.11 3.949-4.972 6.06-5.9 6.693-13.244 15.024-14.488 29.121-.489 5.549-.233 7.619-.131 8.171.14.263.247.543.321.834.008.029 1.116 2.979 13.793 6.313 7.278 1.914 14.385 2.884 14.455 2.894.063.008.125.018.187.029 9.397 1.743 17.321 4.687 23.549 8.751 5.148 3.36 9.16 7.482 11.925 12.257 4.384 7.569 4.205 14.416 4.116 15.788v4.554a3.811 3.811 0 0 1-3.812 3.812H151.8a3.812 3.812 0 0 1 0-7.624h32.253v-.879c0-.141.002-.226.016-.36.021-.309.332-5.777-3.334-11.853-2.206-3.656-5.421-6.851-9.555-9.497-5.322-3.403-12.185-5.905-20.398-7.438-.947-.13-7.953-1.134-15.308-3.07-14.427-3.799-17.935-8.022-18.999-11.09-.816-1.583-1.274-4.729-.608-12.265 1.464-16.588 10.075-26.357 16.363-33.49 1.783-2.022 3.323-3.77 4.422-5.357 4.307-6.22 4.984-13.518 5.05-14.395-.007-.459-.053-.657-.075-.724-.05-.163-.386-.519-.712-.864-.253-.271-.541-.578-.842-.935-1.619-1.938-2.197-4.298-1.766-7.214.483-3.254.771-5.955.907-8.499.397-7.442.187-12.997-.686-18.011a3.44 3.44 0 0 1-.029-.2c-.108-.905-.313-1.907-.643-3.154-1.018-3.849-2.595-7.089-4.69-9.629-.349-.356-3.136-3.084-9.354-6.05-11.19-5.339-24.627-7.309-33.929-8.022-4.473-.343-9.06-.149-13.377.078l-.24.012c-.36.019-.965.049-1.541.108.5 1.19 1.112 2.983.468 5.124-.243.804-.613 1.588-1.169 2.473-1.372 2.188-3.246 3.921-4.904 5.33-.326.294-6.978 6.393-7.208 13.403a3.735 3.735 0 0 1-.054.528c-1.217 6.994-1.135 18.508.183 25.668.028.155.06.311.089.464.404 2.081 1.079 5.563-2.219 8.604l-.088.083c-.425.392-1.008.93-1.104 1.115 0 0-.027.086-.034.322.067.876.746 8.167 5.049 14.385 1.1 1.588 2.639 3.335 4.423 5.357 6.287 7.133 14.899 16.901 16.363 33.49.665 7.535.208 10.682-.608 12.265-1.065 3.067-4.573 7.291-19 11.09-7.414 1.952-14.476 2.956-15.329 3.074-8.121 1.417-14.924 3.85-20.217 7.226-4.115 2.626-7.334 5.831-9.566 9.527-3.728 6.174-3.493 11.797-3.477 12.098.01.111.011.177.011.292v.879h142.731m-36.708-48.793zm-44.329 0z"/></symbol></svg>