<?xml version="1.0" encoding="utf-8"?>
<!-- Generator: Adobe Illustrator 16.0.0, SVG Export Plug-In . SVG Version: 6.00 Build 0)  -->
<!DOCTYPE svg PUBLIC "-//W3C//DTD SVG 1.1//EN" "http://www.w3.org/Graphics/SVG/1.1/DTD/svg11.dtd">
<svg version="1.1" id="图层_1" xmlns="http://www.w3.org/2000/svg" xmlns:xlink="http://www.w3.org/1999/xlink" x="0px" y="0px"
	 width="500px" height="500px" viewBox="-150 -150 500 500" enable-background="new -150 -150 500 500" xml:space="preserve">
<path d="M334.637-134.458c12.53,12.535,12.53,32.85,0,45.381L-89.067,334.65c-12.534,12.53-32.868,12.53-45.399,0
	c-12.535-12.556-12.535-32.871,0-45.401l423.702-423.708C301.768-147.012,322.104-147.012,334.637-134.458z"/>
<path d="M-89.067-134.458l423.704,423.687c12.53,12.556,12.53,32.868,0,45.401c-12.535,12.535-32.871,12.535-45.406,0
	L-134.467-89.075c-12.535-12.556-12.535-32.868,0-45.381C-121.936-147.012-101.602-147.012-89.067-134.458z"/>
</svg>
