<?xml version="1.0" encoding="utf-8"?>
<!-- Generator: Adobe Illustrator 16.0.0, SVG Export Plug-In . SVG Version: 6.00 Build 0)  -->
<!DOCTYPE svg PUBLIC "-//W3C//DTD SVG 1.1//EN" "http://www.w3.org/Graphics/SVG/1.1/DTD/svg11.dtd">
<svg version="1.1" id="图层_1" xmlns="http://www.w3.org/2000/svg" xmlns:xlink="http://www.w3.org/1999/xlink" x="0px" y="0px"
	 width="500px" height="500px" viewBox="-150 -150 500 500" enable-background="new -150 -150 500 500" xml:space="preserve">
<path d="M330.299,151.383l-10.134-5.287c-15.836-9.235-26.519-26.413-26.519-46.125c0-19.675,10.652-36.857,26.488-46.126
	l10.164-5.322c10.578-5.529,16.284-17.909,14.35-29.421c-1.969-5.95-4.185-11.893-6.604-17.772l0,0
	c-2.455-5.88-5.081-11.655-7.888-17.257c-6.774-9.51-19.566-14.244-30.979-10.65l-10.925,3.425
	c-17.772,4.667-37.446,0.067-51.377-13.867c-13.938-13.93-18.535-33.604-13.867-51.342l3.422-10.927
	c3.597-11.377-1.139-24.167-10.646-30.976c-5.604-2.803-11.342-5.463-17.257-7.887l0,0c-5.881-2.453-11.828-4.634-17.773-6.603
	c-11.515-1.937-23.928,3.77-29.425,14.346l-5.29,10.133c-9.266,15.868-26.451,26.519-46.125,26.519
	c-19.674,0-36.859-10.651-46.125-26.519l-5.288-10.136c-5.532-10.577-17.909-16.283-29.423-14.346
	c-5.984,1.938-11.896,4.149-17.807,6.569l0,0c-5.879,2.457-11.656,5.083-17.257,7.887c-9.508,6.81-14.244,19.603-10.648,31.012
	l3.426,10.927c4.667,17.774,0.033,37.446-13.867,51.342c-13.897,13.934-33.571,18.534-51.342,13.9l-10.963-3.458
	c-11.377-3.596-24.17,1.142-30.944,10.65c-2.835,5.599-5.463,11.376-7.884,17.257l0,0c-2.453,5.876-4.631,11.822-6.603,17.772
	c-1.936,11.55,3.767,23.928,14.346,29.457l10.133,5.286c15.869,9.269,26.517,26.451,26.517,46.126
	c0,19.674-10.647,36.826-26.483,46.09l-10.169,5.322c-10.579,5.532-16.281,17.911-14.346,29.428
	c1.971,5.945,4.186,11.891,6.603,17.771l0,0c2.457,5.881,5.083,11.648,7.886,17.253c6.776,9.509,19.567,14.246,30.978,10.652
	l10.888-3.425c17.775-4.665,37.483-0.064,51.381,13.868c13.9,13.897,18.534,33.571,13.9,51.308l-3.457,10.993
	c-3.563,11.383,1.141,24.172,10.648,30.981c5.598,2.807,11.339,5.462,17.254,7.886l0,0c5.878,2.453,11.823,4.633,17.771,6.603
	c11.513,1.938,23.925-3.769,29.424-14.352l5.289-10.129c9.267-15.836,26.451-26.519,46.158-26.519
	c19.674,0,36.824,10.65,46.09,26.451l5.324,10.196c5.532,10.583,17.913,16.289,29.428,14.352c5.945-1.968,11.893-4.185,17.771-6.603
	l0,0c5.878-2.458,11.651-5.079,17.255-7.886c9.51-6.777,14.247-19.569,10.65-30.981l-3.428-10.889
	c-4.667-17.773-0.064-37.479,13.871-51.412c13.896-13.897,33.571-18.533,51.305-13.868l10.964,3.457
	c11.375,3.562,24.172-1.141,30.979-10.649c2.8-5.602,5.465-11.341,7.886-17.256l0,0c2.456-5.88,4.633-11.82,6.6-17.773
	C346.583,169.294,340.877,156.915,330.299,151.383L330.299,151.383z M99.917,229.861c-71.75,0-129.89-58.177-129.89-129.895
	c0-71.712,58.14-129.89,129.89-129.89c71.755,0,129.892,58.178,129.892,129.89C229.814,171.688,171.677,229.861,99.917,229.861
	L99.917,229.861z"/>
</svg>
