<?xml version="1.0" encoding="utf-8"?>
<!-- Generator: Adobe Illustrator 16.0.0, SVG Export Plug-In . SVG Version: 6.00 Build 0)  -->
<!DOCTYPE svg PUBLIC "-//W3C//DTD SVG 1.1//EN" "http://www.w3.org/Graphics/SVG/1.1/DTD/svg11.dtd">
<svg version="1.1" id="图层_1" xmlns="http://www.w3.org/2000/svg" xmlns:xlink="http://www.w3.org/1999/xlink" x="0px" y="0px"
	 width="500px" height="500px" viewBox="-150 -150 500 500" enable-background="new -150 -150 500 500" xml:space="preserve">
<path d="M100.306,345.418c-30.363,0-59.847-5.979-87.584-17.823c-26.81-11.386-50.852-27.702-71.511-48.499
	c-20.661-20.799-36.876-45.028-48.222-71.997c-11.73-27.913-17.683-57.578-17.683-88.155c0-36.588,8.915-72.908,25.753-105.087
	C-82.657-17.236-59-44.533-30.513-65.086c7.914-5.709,18.912-3.859,24.568,4.09c5.655,7.949,3.85,18.998-4.064,24.672
	C-34.084-18.91-54.063,4.106-67.792,30.348c-14.407,27.511-21.707,57.312-21.707,88.595c0,51.042,19.75,99.033,55.613,135.107
	c35.839,36.092,83.5,55.979,134.192,55.979c50.669,0,98.349-19.885,134.208-55.979c35.857-36.074,55.59-84.065,55.59-135.107
	c0-31.247-7.285-61.102-21.713-88.595c-13.727-26.224-33.722-49.258-57.798-66.635c-7.895-5.678-9.732-16.73-4.065-24.675
	c5.678-7.947,16.656-9.814,24.554-4.088C259.586-44.5,283.273-17.2,299.54,13.889c16.864,32.181,25.773,68.505,25.773,105.091
	c0,30.582-5.951,60.238-17.703,88.179c-11.33,26.964-27.557,51.195-48.223,71.992c-20.655,20.791-44.696,37.096-71.507,48.533
	C160.133,339.457,130.664,345.418,100.306,345.418L100.306,345.418L100.306,345.418z M105.591,99.663
	c-9.718,0-17.597-7.896-17.597-17.698v-209.759c0-9.763,7.876-17.71,17.597-17.71c9.718,0,17.617,7.947,17.617,17.71V81.965
	C123.208,91.765,115.313,99.663,105.591,99.663L105.591,99.663L105.591,99.663z"/>
</svg>
