<?xml version="1.0" encoding="utf-8"?>
<!-- Generator: Adobe Illustrator 16.0.0, SVG Export Plug-In . SVG Version: 6.00 Build 0)  -->
<!DOCTYPE svg PUBLIC "-//W3C//DTD SVG 1.1//EN" "http://www.w3.org/Graphics/SVG/1.1/DTD/svg11.dtd">
<svg version="1.1" id="图层_1" xmlns="http://www.w3.org/2000/svg" xmlns:xlink="http://www.w3.org/1999/xlink" x="0px" y="0px"
	 width="500px" height="500px" viewBox="-150 -150 500 500" enable-background="new -150 -150 500 500" xml:space="preserve">
<path d="M253.401,345.501c-0.025,0-0.053,0-0.076,0h-381.122c-5.474,0-9.913-4.439-9.913-9.914v-11.91
	c-0.169-3.322-0.484-21.525,11.139-41.517c7.271-12.51,17.722-23.254,31.064-31.932c16.168-10.512,36.644-17.975,60.861-22.188
	c0.125-0.019,0.25-0.039,0.372-0.054c0.188-0.028,18.82-2.577,37.754-7.567c32.815-8.652,35.687-16.302,35.707-16.375
	c0.193-0.762,0.474-1.488,0.833-2.174c0.268-1.433,0.936-6.816-0.339-21.246c-3.237-36.658-22.33-58.32-37.675-75.729
	c-4.839-5.488-9.412-10.671-12.928-15.757C-26.108,67.204-27.515,42.263-27.57,41.213c-0.007-0.165-0.01-0.331-0.01-0.495
	c0-9.957,4.963-14.536,9.343-18.576l0.23-0.213c0.145-0.136,0.233-0.232,0.286-0.295c0.049-0.712-0.302-2.514-0.539-3.737
	c-0.089-0.463-0.179-0.926-0.265-1.396c-3.807-20.666-4.067-52.588-0.621-73.079c1.276-26.94,24.506-47.565,25.502-48.436
	c0.039-0.033,0.076-0.065,0.115-0.096c3.336-2.833,6.716-5.925,8.867-9.352c0.261-0.411,0.439-0.731,0.568-0.975
	c-0.161-0.417-0.394-0.953-0.581-1.384c-1.295-2.976-3.245-7.476-2.137-13.264c0.673-3.496,3.221-9.736,12.787-12.288
	c3.85-1.027,7.964-1.235,10.968-1.392l0.596-0.031c11.871-0.627,24.533-1.155,37.342-0.172
	c92.64,7.102,124.551,41.72,125.861,43.189c0.076,0.083,0.152,0.167,0.221,0.251c7.416,8.883,12.908,19.954,16.321,32.898
	c1.069,4.039,1.758,7.431,2.156,10.642c3.233,18.801,2.697,38.12,2.007,51.037c-0.387,7.25-1.196,14.861-2.548,23.953
	c-0.365,2.471,0.041,2.953,0.188,3.131c0.401,0.481,0.894,1.003,1.414,1.558c2.052,2.174,4.854,5.149,6.347,9.926
	c0.746,2.385,1.097,4.961,1.097,8.095c0,0.164-0.005,0.33-0.015,0.494c-0.057,1.051-1.463,25.994-16.645,47.927
	c-3.52,5.087-8.086,10.27-12.932,15.758c-15.341,17.406-34.438,39.07-37.673,75.729c-1.272,14.43-0.607,19.813-0.341,21.251
	c0.363,0.683,0.643,1.412,0.836,2.168c0.02,0.074,2.899,7.746,35.868,16.416c18.924,4.978,37.407,7.499,37.59,7.527
	c0.162,0.02,0.325,0.045,0.484,0.073c24.438,4.533,45.044,12.188,61.238,22.757c13.386,8.738,23.821,19.458,31.01,31.876
	c11.403,19.682,10.936,37.488,10.704,41.054v11.845c0,5.473-4.434,9.911-9.911,9.911h-93.771c-5.473,0-9.912-4.437-9.912-9.911
	c0-5.473,4.439-9.915,9.912-9.915h83.872v-2.285c0-0.365,0.005-0.589,0.041-0.935c0.056-0.805,0.863-15.023-8.67-30.824
	c-5.734-9.509-14.095-17.817-24.847-24.697c-13.841-8.851-31.686-15.356-53.043-19.344c-2.464-0.335-20.682-2.948-39.807-7.981
	c-37.52-9.881-46.642-20.862-49.409-28.842c-2.121-4.113-3.312-12.296-1.58-31.894c3.807-43.136,26.198-68.539,42.553-87.089
	c4.637-5.258,8.64-9.804,11.499-13.931c11.199-16.175,12.959-35.153,13.132-37.434c-0.019-1.193-0.14-1.709-0.196-1.883
	c-0.129-0.424-1.003-1.35-1.851-2.247c-0.658-0.705-1.407-1.503-2.189-2.431c-4.21-5.04-5.714-11.177-4.594-18.76
	c1.257-8.463,2.006-15.486,2.359-22.102c1.033-19.354,0.484-33.798-1.785-46.837c-0.031-0.171-0.054-0.348-0.074-0.521
	c-0.281-2.353-0.815-4.958-1.674-8.202c-2.646-10.009-6.747-18.434-12.194-25.04c-0.909-0.926-8.154-8.02-24.323-15.733
	c-29.101-13.884-64.043-19.006-88.233-20.861c-11.631-0.892-23.559-0.388-34.786,0.203l-0.624,0.032
	c-0.936,0.049-2.51,0.127-4.007,0.28c1.3,3.095,2.891,7.757,1.216,13.325c-0.631,2.09-1.594,4.129-3.04,6.43
	c-3.568,5.691-8.441,10.197-12.752,13.86C18.534-89.303,1.236-73.442,0.638-55.212c-0.015,0.459-0.06,0.92-0.141,1.373
	C-2.667-35.652-2.454-5.711,0.973,12.909c0.073,0.402,0.156,0.809,0.231,1.206c1.051,5.412,2.806,14.466-5.77,22.375l-0.229,0.216
	c-1.106,1.02-2.622,2.419-2.872,2.9l0,0c0,0-0.07,0.224-0.088,0.837c0.174,2.278,1.94,21.238,13.129,37.408
	c2.861,4.129,6.863,8.673,11.503,13.931c16.348,18.55,38.744,43.95,42.551,87.089c1.729,19.595,0.541,27.78-1.581,31.894
	c-2.77,7.978-11.893,18.961-49.409,28.842c-19.28,5.076-37.645,7.688-39.863,7.992c-21.119,3.688-38.809,10.013-52.573,18.792
	c-10.702,6.829-19.072,15.164-24.877,24.775c-9.693,16.056-9.083,30.678-9.041,31.46c0.025,0.289,0.028,0.46,0.028,0.76v2.285
	h371.166 M157.824,198.785c0.241,0.195,0.47,0.401,0.69,0.62C158.31,199.196,158.075,198.991,157.824,198.785z M42.546,198.785
	c-0.249,0.206-0.476,0.406-0.683,0.612C42.084,199.184,42.313,198.98,42.546,198.785z"/>
</svg>
